/* XPM */
const char *antenna_xpm[] = {
/* width height num_colors chars_per_pixel */
"    32    32       15            1",
/* colors */
". c #c0c0c0",
"# c #c0dcc0",
"a c #a6caf0",
"b c #404040",
"c c #606080",
"d c #608080",
"e c #808080",
"f c #80a080",
"g c #8080c0",
"h c #80a0c0",
"i c #a0a0c0",
"j c #a0c0c0",
"k c #fffbf0",
"l c #a0a0a4",
"m c None",
/* pixels */
"mmmmmmmmmmmmk#.....kmmmmmmmmmmmm",
"mmmmmmmmmmk..illli.##kmmmmmmmmmm",
"mmmmmmmmmk.ldefliiij#.kmmmmmmmmm",
"mmmmmmmmk.edelijjjjjjk.mmmmmmmmm",
"mmmmmmmk.edelijjjj....k#mmmmmmmm",
"mmmmmmm#edeljjj.....#.#.kmmmmmmm",
"mmmmmmkiceljj.###########mmmmmmm",
"mmmmmm.edlij.a#aa###aaak.mmmmmmm",
"mmmmmkidelj.#akkkaa####k.mmmmmmm",
"mmmmm#ldlj.#kkkkkkkaaa#k.mmmmmmm",
"mmmmm.eelj#akmkkkkkaaaak.mmmmmmm",
"mmmmm.eei.akkkmmmkkka#ak.mmmmmmm",
"mmmmm.elj#akkmmmmkkka#ak.mmmmmmm",
"mmmmm.eljakkmmmmmkkkaa##.mmmmmmm",
"mmmmm.lljaammmmkkkkk###.#mmmmmmm",
"mmmmm.ihja###mk##kkk#..jkkmmmmmm",
"mmmmm.jhjkkk.l.##aka....mmmmmmmm",
"mmmmmk.i##aa.dl..##.jl.lmmmmmmmm",
"mmmmmm..fijieclijjjl.llmmmmmmmmm",
"mmmmmm##iejjebelllfe.gmmmmmmmmmm",
"mmmmmmm#kecfebceeedd.mmmmmmmmmmm",
"mmmmmmmm#.ccdcbddccmmmmmmmmmmmmm",
"mmmmmmmmmk.dccbbbekmmmmmmmmmmmmm",
"mmmmmmmmmmmk#..lckmmmmmmmmmmmmmm",
"mmmmmmmmmmmmmmm.emmmmmmmmmmmmmmm",
"mmmmmmmmmmmmmmm..mmmmmmmmmmmmmmm",
"mmmmmmmmmmmmmk.alkkmmmmmmmmmmmmm",
"mmmmmmmmmmmkjijjecemmmmmmmmmmmmm",
"mmmmmmmmmmm.##jjlecmmmmmmmmmmmmm",
"mmmmmmmmmmm####j.le.mmmmmmmmmmmm",
"mmmmmmmmmmm#.##..ld.mmmmmmmmmmmm",
"mmmmmmmmmmmmk.llelmmmmmmmmmmmmmm"
};
