/* XPM */
const char* base_xpm[] = {    
"32 32 5 1",
". c None",
"+ c #000000",
"@ c #00F800",
"# c #808080",
"$ c #F80000",
"................................",
"................................",
"................................",
"................................",
"................................",
"....++++++++++++++++++++++......",
"....+....................+......",
"....+......++++++........+......",
"....+......+@@@@+........+......",
"....+......++++++........+......",
"....+....................+......",
"....+......+++++.+++++...+......",
"....+......+###+.+###+...+......",
"....+......+++++.+++++...+......",
"....+....................+......",
"....+.++++..++...++..+++.+......",
"....+.+$$+.+##+.+##+.+@+.+......",
"....+.+$$+.+##+.+##+.+@+.+......",
"....+.++++..++...++..+++.+......",
"....+....................+......",
"....+.......+++++........+......",
"....+.......+@@@+........+......",
"....+.+++++.+@@@+..+++++.+......",
"....+.+@@@+.+++++..+$$$+.+......",
"....+.+++++........+++++.+......",
"....+....................+......",
"....++++++++++++++++++++++......",
"................................",
"................................",
"................................",
"................................",
"................................"};
