/* XPM */
const char *calibrate_xpm[] = {
/* width height num_colors chars_per_pixel */
"    32    32       45            1",
/* colors */
". c #c0c0c0",
"# c #c0dcc0",
"a c #a6caf0",
"b c #002040",
"c c #204040",
"d c #404040",
"e c #206040",
"f c #406040",
"g c #606040",
"h c #408040",
"i c #40a040",
"j c #60a040",
"k c #80a040",
"l c #60c040",
"m c #80e040",
"n c #a0e040",
"o c #202080",
"p c #004080",
"q c #204080",
"r c #404080",
"s c #006080",
"t c #206080",
"u c #406080",
"v c #606080",
"w c #408080",
"x c #608080",
"y c #808080",
"z c #60a080",
"A c #60c080",
"B c #2060c0",
"C c #4060c0",
"D c #0080c0",
"E c #2080c0",
"F c #4080c0",
"G c #00a0c0",
"H c #20a0c0",
"I c #40a0c0",
"J c #60a0c0",
"K c #80a0c0",
"L c #a0a0c0",
"M c #c0a0c0",
"N c #a0c0c0",
"O c #fffbf0",
"P c #a0a0a4",
"Q c None",
/* pixels */
"QQQQQQQQQQQO##....##OQQQQQQQQQQQ",
"QQQQQQQQQOPN#OOQQOO#PNOQQQQQQQQQ",
"QQQQQQQOP.QQQQQOOQQQQQ.POQQQQQQQ",
"QQQQQQ.PQQQQQQQQQQQQQQQO..QQQQQQ",
"QQQQQ.OQQQQQ#LvuuvL.QQQQQO.OQQQQ",
"QQQQ.#QQQQNvuqCCCCqquLQQQQ#.QQQQ",
"QQQ..QQQOvquCCCFFCCCCqu#QQQO.QQQ",
"QQOPQQQOquuuuttwztttuuuqOQQQ.OQQ",
"QQPQQQOqutttttqzAqtttttuq#QQQPQQ",
"QO.QQQuqtuuttqqzlqqtttutuqQQQ#.Q",
"QPQQQNquqquqqqqlnqqqquuqqqPQQQPQ",
"ONQQQvuqqqquuqemnecquqqqquuOQQ.O",
"##QQ.qqqqqqquqennfqrqqqqqqq.QQ##",
"#OQQLpcqqqqqqqhmmhqqqqqqqcqyQQO.",
".OQQvqcqqqqqqoijkioqqqqqqcqCQQO.",
".OOQuqqruuqdbbj.OkbbeqrurqquQOO.",
".###uqruuqqcbbgOOdbbcqquurqr###.",
".OOOuqqqqqqquuqPPrqttqqqqqquOOO.",
"#OOQPrqqqttttuuOOuuttttqqqqvQOO.",
"O.OO.qttttttFtt.#ttwttttttqNOOO#",
"ONOOOutttttFEttKNttBFttttuq#OONO",
"QPQOQLttttFEEEEJKEEEEEwtttxOOQMQ",
"QO.OOQtBBCEEEEEHHEEEEECttqOOO#.Q",
"QQPOOO.tEEEEEEDHHDDEEEEEsNOOOPQQ",
"QQO.OOOatEEDDGGHHGGDDEEsaOOO..QQ",
"QQQ.OOOO.tDEGGGHHGGGEDsNOOO#.QQQ",
"QQQQ.#OOOOJEDDHGHHGDDIOOOO#NQQQQ",
"QQQQO.OQOOOONJDDDDFNOOOOO#.OQQQQ",
"QQQQQQ..OOOOOOOOOOOOOOOO..QQQQQQ",
"QQQQQQQ#P#QQQQQOOQQQQQ.P#QQQQQQQ",
"QQQQQQQQQOP.OOOOOOOO.P.OQQQQQQQQ",
"QQQQQQQQQQQO#......#OQQQQQQQQQQQ"
};
