/* XPM */
const char *exit_xpm[] = {
/* width height num_colors chars_per_pixel */
"    32    32       19            1",
/* colors */
". c #c0c0c0",
"# c #c0dcc0",
"a c #a02000",
"b c #c02000",
"c c #a04000",
"d c #c04000",
"e c #e04000",
"f c #e06000",
"g c #a04040",
"h c #c04040",
"i c #e04040",
"j c #c06040",
"k c #e06040",
"l c #e08040",
"m c #e08080",
"n c #e0a080",
"o c #e0a0c0",
"p c #fffbf0",
"q c None",
/* pixels */
"qqqqqqqqqqqqqqqqqqqqqqqqqqqqqqqq",
"qq#mkkkkkkkkkkkkkiiiiiiieeeekoqq",
"q#kmnmmmlllkkkkkkkkkkkkkkkiiddoq",
"qlmnnnnnmmmmmmmmmlllllkkkkkkhdgq",
"qknnonnnnmmmmmmmmmmllllkkkkkidaq",
"qknnnnnnmmmmmmmmmlllllkkkkkkidaq",
"qkmnnnnnmmmmnppqqppnlkkkkkkkidaq",
"qkmnnnnmmmopqqqqqqqqpnkkkkkkihaq",
"qkmmnmmmmoqqpnmkklnpqqokkkkkihcq",
"qklmmmmmoqqnkkkkkkkknqqokkkkihcq",
"qklmmmmoqqnkkkkkkkkkklqqnkkkihcq",
"qklmmmmpqokkkkkqqkkkkknqpkkkihcq",
"qkkmmmnqpkkkkkkqqkkkkiipqnkkihaq",
"qkklmmpqokkkkkkqqkkkkiimqpikidaq",
"qkklllpqmkkkkkkqqkkkkkikqpiiidaq",
"qikkllqqlkkkkkkqqkkkkkieqqiiidaq",
"qikkllqqlkkkkkkqqkkkkkkeqqiiidaq",
"qikkklpqmkkkkkkqqkkkkkkkqpeeedaq",
"qekkkk#qnkkkkkkqqkkkkkknqoeeedaq",
"qekkkknqpkkkkkkqqkkkkkkpqmeeedaq",
"qekkkklpqokkkkkqqkkkkknqpkeeedaq",
"qeikkkknqqnkkkkkkkkkknqqneeeedaq",
"qeikkkkkoqqokkkkkkkknqqoeeeeedaq",
"qeikkkkkkoqqpnmkklnpqqofeeeeebaq",
"qeeikkkkkknpqqqqqqqqpnfeeeeeebaq",
"qeeikkkkkkkknopqqponkfeeeeeeebaq",
"qeeeiikkkkkkkkkkkkkkeeeeeeeeebaq",
"qbeeeiiikkkkkkkkkieeeeeeeeeebbaq",
"qjddddhhhhhhhhhdeeeeeeeeeeebbagq",
"q.abddddddddddddddddddbbbbbbaaoq",
"qq.gaaaaaaaaaaaaaaaaaaaaaaaagoqq",
"qqqqqqqqqqqqqqqqqqqqqqqqqqqqqqqq"
};
