/* XPM */
const char *gsh_xpm[] = {
/* width height num_colors chars_per_pixel */
"    32    32        7            1",
/* colors */
". c #c0c0c0",
"# c #406040",
"a c #608080",
"b c #a0a0c0",
"c c #a0c0c0",
"d c #fffbf0",
"e c None",
/* pixels */
"e####################eeeeeeeeeee",
"e####################eeeeeeeeeee",
"eeeeeeeeeeeeeeeeeeeeeeeeeeeeeeee",
"eeeeeeeeeeeeeeeeeeeeeeeeeeeeeeee",
"edddd..eedddd..eedddd..eedddd..e",
"edddd..eedddd..eedddd..eedddd..e",
"eddcc##eeddcc##eeddcc##eeddcc##e",
"eddcc##eeddcc##eeddcc##eeddcc##e",
"eccccaaeeccccaaeeccccaaeeccccaae",
"eccccaaeeccccaaeeccccaaeeccccaae",
"eccbbaaeeccbbaaeeccbbaaeeccbbaae",
"eccbbaaeeccbbaaeeccbbaaeeccbbaae",
"eaaaaaaeeaaaaaaeeaaaaaaeeaaaaaae",
"eaaaaaaeeaaaaaaeeaaaaaaeeaaaaaae",
"eeeeeeeeeeeeeeeeeeeeeeeeeeeeeeee",
"eeeeeeeeeeeeeeeeeeeeeeeeeeeeeeee",
"eeeeeeeeeeeeeeeeeeeeeeeeeeeeeeee",
"eeeeeeeeeeeeeeeeeeeeeeeeeeeeeeee",
"e##############################e",
"e##############################e",
"eeeeeeeeeeeeeeeeeeeeeeeeeeeeeeee",
"eeeeeeeeeeeeeeeeeeeeeeeeeeeeeeee",
"edddd..eedddd..eeeeeeeeeeeeeeeee",
"edddd..eedddd..eeeeeeeeeeeeeeeee",
"eddcc##eeddcc##eeeeeeeeeeeeeeeee",
"eddcc##eeddcc##eeeeeeeeeeeeeeeee",
"eccccaaeeccccaaeeeeeeeeeeeeeeeee",
"eccccaaeeccccaaeeeeeeeeeeeeeeeee",
"eccbbaaeeccbbaaeeeeeeeeeeeeeeeee",
"eccbbaaeeccbbaaeeeeeeeeeeeeeeeee",
"eaaaaaaeeaaaaaaeeeeeeeeeeeeeeeee",
"eaaaaaaeeaaaaaaeeeeeeeeeeeeeeeee"
};
