/* XPM */
const char * howl_xpm[] = {
"32 32 6 1",
".      c None",
"+	c #000000",
"@	c #808000",
"#	c #808080",
"$	c #F8F800",
"%	c #F8F8F8",
"................................",
"................................",
"................................",
"................................",
"................................",
"...........+++++++++++..........",
"..........+++++++++++++.........",
"........++++.........++++.......",
".......++++.....++....++++......",
"......+++......@#+#....++++.....",
"......++......@$+.....+++++.....",
".....++......@$##.%#.+++#.++....",
"....+++.....@$%+.%%#+++#..+++...",
"....++....@@$%$+.%%+++.....++...",
"....++...@%.%$%++%+++......++...",
"...+++...@$.$%$+.+++.......+++..",
"...+++...@$.%$%++++#.####..+++..",
"...+++...+@#$%$+++%#.......+++..",
"...+++....++@$+++%%#.......+++..",
"...+++......++++.%%#.#.....+++..",
"....++......+++##%%#..##...++...",
"....++.....++++@+..#....#..++...",
"....+++...+++..+@+#.......+++...",
".....++..+++....++........++....",
"......+++++..............++.....",
"......++++..............+++.....",
".......++++...........++++......",
"........++++.........++++.......",
"..........+++++++++++++.........",
"...........+++++++++++..........",
"................................",
"................................"};
