/* XPM */
const char * icon_xpm[] = {
"32 32 5 1",
" 	c None",
".	c #008000",
"+	c #00FF00",
"@	c #0000FF",
"#	c #FF00FF",
"................................",
"................................",
".....++..................@@.....",
".....++..................@@.....",
"....++++................@@@@....",
"....++++................@@@@....",
"...++..++..............@@..@@...",
"...++..++..............@@..@@...",
"..++++++++............@@@@@@@@..",
"..++....++............@@....@@..",
".++......++..........@@......@@.",
".++......++..........@@......@@.",
"..............#####.............",
".............##...##............",
"............##.....##...........",
"............##..................",
"............##..................",
"............##..................",
"............##..................",
"............##.....##...........",
"..@@...@@....##...##...++...++..",
"..@@..@@......#####....++..++...",
"..@@.@@................++.++....",
"..@@@@.................++++.....",
"..@@@..................+++......",
"..@@@@.................++++.....",
"..@@.@@................++.++....",
"..@@..@@...............++..++...",
"..@@...@@..............++...++..",
"..@@....@@.............++....++.",
"................................",
"................................"};
