/* XPM */
const char* levelup_xpm[] = {    
"32 32 3 1",
". c None",
"+ c #000080",
"@ c #0000F8",
"................................",
"................................",
"................................",
"................................",
"................................",
".............++.................",
"............++++................",
"............++++................",
".........++..++..++.............",
"........++++....++++............",
"........++++....++++............",
"......++.++......++.++..........",
".....++++....++....++++.........",
".....++++...++++...++++.........",
"......++....+@@+....++..........",
".............@@.................",
"................................",
".............++.................",
"............++++................",
"............@@@@................",
".............@@.................",
"................................",
".............++...++............",
"............++++.++++...........",
"............@@@@.@@@@...........",
".............@@...@@............",
"................................",
"................................",
"................................",
"................................",
"................................",
"................................"};
