/* XPM */
const char *obzor_xpm[] = {
/* width height num_colors chars_per_pixel */
"    32    32       35            1",
/* colors */
". c #000080",
"# c #c0c0c0",
"a c #c0dcc0",
"b c #a6caf0",
"c c #404040",
"d c #400080",
"e c #004080",
"f c #404080",
"g c #604080",
"h c #406080",
"i c #606080",
"j c #a06080",
"k c #60a080",
"l c #a0a080",
"m c #c0a080",
"n c #a0c080",
"o c #c0c080",
"p c #0000c0",
"q c #4000c0",
"r c #0040c0",
"s c #4040c0",
"t c #6040c0",
"u c #4060c0",
"v c #6060c0",
"w c #a060c0",
"x c #60a0c0",
"y c #a0a0c0",
"z c #c0a0c0",
"A c #e0a0c0",
"B c #60c0c0",
"C c #a0c0c0",
"D c #fffbf0",
"E c #a0a0a4",
"F c #0000ff",
"G c None",
/* pixels */
"GGGGGGA#zCmaDGGGGGGGGGGGGGGGGGGG",
"GGGGGAEiEEynaAGGGGGGGGGGGGGGGGGG",
"GGGGAkiEyCzC##GGGGGGGGGGGGGGGGGG",
"GGGDkiyECo#m#o#GGGGGGGGGGGGGGGGG",
"GGGCgECC#Coa#C#GGGGGGGGGGGGGGGGG",
"GGGikECCGAb##oGAGGGGGGGGGGGGGGGG",
"GGmimC#GGGGbbCAGGGGGGGGGGGGGGGGG",
"GGCiCCGDGGGDbCGAGGGGGGGGGGGGGGGG",
"GGEk#bDGGGDGbCAGGGGGGGGGGGGGGGGG",
"GGCEb#GGGDGDCoCDGGGGGGGGGGGGGGGG",
"GGmx#a##ACDGo##GDGGGGGGGGGGGGGGG",
"GGGEa#GlCoG#CixECoa#aaa#GGGDGGGG",
"GGACjCEhmyEkzepppppxbCzCzC#GDGGG",
"GGG##incklkiC.rer.FxGAGDGAGC#AGG",
"GGGGAEghchg#E.prprpuGGDGGGDamGGG",
"GGGGGG#EEcGGEf.ereFsGCb#G#G##DGG",
"GGGGGGGGDEGaihqrpr.rbb#bbbbCmGGG",
"GGGGGGGGbEG#kgu.r.r.b#bCbCb#CDGG",
"GGGGGG#yykgEgsg..rppwbyCbbyCmGGG",
"GGGGGGCoaoEmhfh.err.uExjyyx#CGGG",
"GGGGGG#CmEECdede..prqvvuvuvCzGGG",
"GGGGGGGDG#Go......erriuiuixobGGG",
"GGGGGGGGGGGEzygfd....rsrsrwn#GGG",
"GGGGGGGGGGGmEE#oCExgr.r.r.BEGGGG",
"GGGGGGGGGGGGGG#CzCEnm#zxtpzEGGGG",
"GGGGGGGGGGGGGGGGGmEjkjCo#oaEGGGG",
"GGGGGGGGGGGGGGG#mCmyEkgiECzCGGGG",
"GGGGGGGGGGGGGGGm#o#o#oCEEECoGGGG",
"GGGGGGGGGGGGGGACzC#a#CzCmEmCAGGG",
"GGGGGGGGGGGGGGG##oao#o#o##GDGDGG",
"GGGGGGGGGGGGGGGGDa#CoCz#GGGGGGGG",
"GGGGGGGGGGGGGGGGGGGDGDGGGGGGGGGG"
};
