/* XPM */
const char * palette_xpm[] = {
"32 32 214 2",
"  	c None",
". 	c #E8F0F0",
"+ 	c #F8F8F8",
"@ 	c #E8E8E8",
"# 	c #C0C0D8",
"$ 	c #E0E0E8",
"% 	c #F0F0F8",
"& 	c #C8D0E0",
"* 	c #E8E8F0",
"= 	c #B8B8D8",
"- 	c #D8D8E0",
"; 	c #6068A0",
"> 	c #283878",
", 	c #E09898",
"' 	c #B0B8D0",
") 	c #F8F8F0",
"! 	c #7880B0",
"~ 	c #405088",
"{ 	c #D8D8E8",
"] 	c #C8C8E0",
"^ 	c #384888",
"/ 	c #D89090",
"( 	c #6878A8",
"_ 	c #98A0C0",
": 	c #384080",
"< 	c #D0D8E0",
"[ 	c #A8B0D0",
"} 	c #A8A8D0",
"| 	c #505890",
"1 	c #C8C8D8",
"2 	c #506098",
"3 	c #8890B8",
"4 	c #C87880",
"5 	c #6870A0",
"6 	c #9098C0",
"7 	c #A0A8C8",
"8 	c #A86878",
"9 	c #8088B0",
"0 	c #A83838",
"a 	c #D88888",
"b 	c #C0C8D8",
"c 	c #A8A8C0",
"d 	c #C88080",
"e 	c #C8D0D8",
"f 	c #D08890",
"g 	c #E0E8F0",
"h 	c #B8C0D8",
"i 	c #7078A8",
"j 	c #586898",
"k 	c #C85050",
"l 	c #D0D0E8",
"m 	c #F8F000",
"n 	c #586098",
"o 	c #A850E0",
"p 	c #C08088",
"q 	c #C07880",
"r 	c #303878",
"s 	c #9098B8",
"t 	c #98A0B8",
"u 	c #68D0FF",
"v 	c #A86070",
"w 	c #404870",
"x 	c #A06858",
"y 	c #303880",
"z 	c #A0A830",
"A 	c #E8E008",
"B 	c #E06060",
"C 	c #6870A8",
"D 	c #B870E8",
"E 	c #80D8FF",
"F 	c #D8E0E8",
"G 	c #7080A8",
"H 	c #A0A0C8",
"I 	c #B8B8D0",
"J 	c #78D020",
"K 	c #305898",
"L 	c #70C018",
"M 	c #C080E0",
"N 	c #A858E0",
"O 	c #FFFF08",
"P 	c #483868",
"Q 	c #F8FF40",
"R 	c #FFFF20",
"S 	c #98E048",
"T 	c #A0A0C0",
"U 	c #D87070",
"V 	c #E0D008",
"W 	c #9898C0",
"X 	c #505098",
"Y 	c #A83028",
"Z 	c #88D8FF",
"` 	c #503058",
" .	c #985870",
"..	c #909038",
"+.	c #F8F8FF",
"@.	c #C890F8",
"#.	c #589048",
"$.	c #58B8F0",
"%.	c #5840A0",
"&.	c #C88888",
"*.	c #50A0D8",
"=.	c #50B0E8",
"-.	c #8890B0",
";.	c #A87888",
">.	c #E8D0F8",
",.	c #485890",
"'.	c #78C820",
").	c #7830B0",
"!.	c #60C0F8",
"~.	c #7048B0",
"{.	c #4868A8",
"].	c #78D0FF",
"^.	c #483090",
"/.	c #88D830",
"(.	c #9040C8",
"_.	c #884058",
":.	c #7848B8",
"<.	c #9090B8",
"[.	c #A048D8",
"}.	c #A05870",
"|.	c #90D8FF",
"1.	c #982020",
"2.	c #304078",
"3.	c #A0A8C0",
"4.	c #284078",
"5.	c #E0C060",
"6.	c #E08060",
"7.	c #FFFF00",
"8.	c #3868A8",
"9.	c #405898",
"0.	c #404078",
"a.	c #304870",
"b.	c #385078",
"c.	c #68B830",
"d.	c #80B858",
"e.	c #68C8FF",
"f.	c #709868",
"g.	c #78A870",
"h.	c #8038C0",
"i.	c #80A878",
"j.	c #80A8D0",
"k.	c #78A8D8",
"l.	c #78B840",
"m.	c #8038B8",
"n.	c #68B818",
"o.	c #589818",
"p.	c #589830",
"q.	c #6040A8",
"r.	c #508048",
"s.	c #508828",
"t.	c #5878B0",
"u.	c #606860",
"v.	c #684060",
"w.	c #687858",
"x.	c #68A838",
"y.	c #60A810",
"z.	c #60B8F0",
"A.	c #60C8F8",
"B.	c #A0A878",
"C.	c #A0E850",
"D.	c #A0E858",
"E.	c #A07888",
"F.	c #A0A838",
"G.	c #A0A858",
"H.	c #A8E070",
"I.	c #A8E860",
"J.	c #A8E8FF",
"K.	c #A8B0C8",
"L.	c #A8B858",
"M.	c #A8B878",
"N.	c #E0E0E0",
"O.	c #8868C8",
"P.	c #88B8E0",
"Q.	c #88C070",
"R.	c #80D028",
"S.	c #881820",
"T.	c #8848C8",
"U.	c #98E0FF",
"V.	c #A03028",
"W.	c #A05058",
"X.	c #88D838",
"Y.	c #983840",
"Z.	c #9848D0",
"`.	c #406860",
" +	c #4090C8",
".+	c #403888",
"++	c #406068",
"@+	c #A0E0FF",
"#+	c #7880A8",
"$+	c #E08040",
"%+	c #FFFFA0",
"&+	c #384878",
"*+	c #385088",
"=+	c #384088",
"-+	c #E0E020",
";+	c #3880B8",
">+	c #403870",
",+	c #385868",
"'+	c #385898",
")+	c #A0C020",
"!+	c #4860A0",
"~+	c #505088",
"{+	c #487838",
"]+	c #504098",
"^+	c #48A0D0",
"/+	c #4880C0",
"(+	c #404888",
"_+	c #484898",
":+	c #484878",
"<+	c #484078",
"[+	c #508038",
"}+	c #606898",
"|+	c #506068",
"1+	c #485888",
"                                                                ",
"                                                                ",
"                                                                ",
"                                                                ",
"                  * 7 ( ~ > > > > ; 3 #                         ",
"              % ! > G c e . . . - # s | ^ _ %                   ",
"            { ~ 5 @ + + + ) . . + * & g b j ~ &                 ",
"          % ~ c . + ' ; ( { ) + h K /+9.{ ) t : '               ",
"          ! 5 . ) { `.'.c.1+  + ; !.u *.6 + . e : '             ",
"        * > @ . ) 6 #.J J ++  + ; z.u *.6 + . . 1 > {           ",
"        7 G . . ) * ,+x.#.; + ) { *+8.,.g + + % @ 9 2           ",
"        ! ) ) + + ) ) { F ) ) +   ) )     ) ! $ + ) ! #         ",
"        2 # + & 6 {   + + ) . . . . @ . ' ]+[.~.! % -.(         ",
"        > + 7 w.)+|+h ) . . . . @ @ $ % 6 T.o o ; % ' ^         ",
"        > + ; m 7.A ( + . . @ @ $ $ $ @ ' %.o :.( * # >         ",
"        > + ( -+7.F.3 + @ b 5 ; I - - < + 6 ; ! % ] H ^         ",
"        > @ { ~ u.; % @ $ ; ! ! }+< & & & $ * $ # = 2 !         ",
"        ; # ) +   + . $ $ 5 ; ; 5 & ] 1 # # = = 7 ; ^ %         ",
"        ! t @ @ % % & * % 1 ! #+# ' 9 i n | | ^ > ! *           ",
"        g ! ) + + ! ! 1 * ) ) % g ! ) $ * ) ) %                 ",
"        * : $ * 6 _.0 0 ; % # [ : &                             ",
"          2 T * 6 _.0 0 ; * = | _                               ",
"          7 j < $ ~+! :+h l 9 ~ %                               ",
"          % ^ ' l + & % { } ^ '                                 ",
"            _ | = = = ' [ C ;                                   ",
"            % ~ ! ' [ } 6 > {                                   ",
"              { ^ 2 W <.y '                                     ",
"                +.! ! b *                                       ",
"                                                                ",
"                                                                ",
"                                                                ",
"                                                                "};
