/* XPM */
const char * panel_elk_xpm[] = {
"32 32 3 1",
" 	c None",
".	c #000080",
"+	c #0000F8",
"                                ",
"                                ",
"                                ",
"                                ",
"                                ",
"     ..   .. ....... ......     ",
"     ..   .. ..   .. ..   ..    ",
"     ..   .. ..   .. ..   ..    ",
"     .+   +. +.   +. +.   ..    ",
"     ++   ++ ++   ++ ++++++     ",
"      ++++++ ++   ++ ++         ",
"          ++ ++   ++ ++         ",
"     ++   ++ ++   ++ ++         ",
"      +++++  ++   ++ ++         ",
"                                ",
"                                ",
"      .....   .....  ......     ",
"     ..   .. ..   .. ..   ..    ",
"     ..   .. ..      ..   ..    ",
"     +.   +. +.      .+   ..    ",
"     ++   ++ ++      ++++++     ",
"     ++   ++ ++      ++   ++    ",
"     ++   ++ ++      ++   ++    ",
"     ++   ++ ++   ++ ++   ++    ",
"      +++++   +++++  ++++++     ",
"                                ",
"                                ",
"                                ",
"                                ",
"                                ",
"                                ",
"                                "};
