/* XPM */
const char *poi_xpm[] = {
/* width height num_colors chars_per_pixel */
"    32    32       24            1",
/* colors */
". c #c0c0c0",
"# c #c0dcc0",
"a c #a6caf0",
"b c #604040",
"c c #404080",
"d c #604080",
"e c #406080",
"f c #606080",
"g c #a06080",
"h c #60a080",
"i c #a0a080",
"j c #c0a080",
"k c #a0c080",
"l c #c0c080",
"m c #a060c0",
"n c #60a0c0",
"o c #a0a0c0",
"p c #c0a0c0",
"q c #e0a0c0",
"r c #60c0c0",
"s c #a0c0c0",
"t c #fffbf0",
"u c #a0a0a4",
"v c None",
/* pixels */
"vvvvvvvvvvvvvvvvvvvvvvvvvvvvvvvv",
"vvvvvvvvvvvvvvvvvvvvvvvvvvvvvvvv",
"vvvvl#...#...#...#qkvvvvvvvvvvvv",
"vvvv#vvvvvvvvvvvvvvlsvvvvvvvvvvv",
"vvvv.vvvvvvvvvvvvvv.puvvvvvvvvvv",
"vvvv#vvvvvvvvvvvvvv.vqkvvvvvvvvv",
"vvvv.vvvvvvvvvvvvvv.vvquvvvvvvvv",
"vvvv#vvvvvvvvvvvvvv....luvvvvvvv",
"vvvv.vvvvvvvt.vvvvvv.#.#q.vvvvvv",
"vvvv#vvvvv.la.#vvtvvvtvvvuvvvvvv",
"vvvv.vvvv.aa.utvivvvvvvv.kvvvvvv",
"vvvv#vvqasavv.vvvvvvvvvv#uvvvvvv",
"vvvv.vv..vthbffsvvf#vvvvquvvvvvv",
"vvvv#vvtavhfojkfv.hkvvvtauvvvvvv",
"vvvv.vtvqsdutvv.o.v#vvtv.kvvvvvv",
"vvvv#vvuvvh.vvv.vahivtvtvuvvvvvv",
"vvvv.vvsqvosvvvvasghvvtvquvvvvvv",
"vvvv#vvjvtvtv.vsasou.qvtauvvvvvv",
"vvvv.vvvfhaaonaa.#v#vstvqkvvvvvv",
"vvvv#vvtvurfsoffsvff.ustvuvvvvvv",
"vvvv.vvvvvghfcge.vfhpvgvquvvvvvv",
"vvvv#vvvvt#ksguluoasafhtauvvvvvv",
"vvvv.vvvvvvvt.qvjhmeufuvqkvvvvvv",
"vvvv#vvtvtvtvtvtvlfffg#tvuvvvvvv",
"vvvv.vvvtvtvtvtvtv...svvquvvvvvv",
"vvvv#tvtvtvtvtvtvtvtvtvtauvvvvvv",
"vvvv.vvvvvtvvvvvvvtvvvvvqkvvvvvv",
"vvvv#vvtvtvtvtvtvtvtvtvt#uvvvvvv",
"vvvv.vvvvvvvvvvvvvvvvvvvquvvvvvv",
"vvvvsjsusjsusjsusjsusjsuouvvvvvv",
"vvvvvvvvvvvvvvvvvvvvvvvvvvvvvvvv",
"vvvvvvvvvvvvvvvvvvvvvvvvvvvvvvvv"
};
