/* XPM */
const char *restart_xpm[] = {
/* width height num_colors chars_per_pixel */
"    32    32       32            1",
/* colors */
". c #c0c0c0",
"# c #c0dcc0",
"a c #a6caf0",
"b c #204040",
"c c #404040",
"d c #204080",
"e c #404080",
"f c #206080",
"g c #406080",
"h c #606080",
"i c #208080",
"j c #408080",
"k c #608080",
"l c #808080",
"m c #60a080",
"n c #80a080",
"o c #2060c0",
"p c #4060c0",
"q c #2080c0",
"r c #4080c0",
"s c #6080c0",
"t c #20a0c0",
"u c #40a0c0",
"v c #60a0c0",
"w c #80a0c0",
"x c #a0a0c0",
"y c #40c0c0",
"z c #80c0c0",
"A c #a0c0c0",
"B c #fffbf0",
"C c #a0a0a4",
"D c None",
/* pixels */
"DDDDDDDDDDDDDDDDDDDBDDDDDDDDDDDD",
"DDDDDDDDDDDDDDDDDDDBaBDDDDDDDDDD",
"DDDDDDDDDDDDDDDDDDDBwwBDDDDDDDDD",
"DDDDDDDDDDDDDDDDDDDavp.DDDDDDDDD",
"DDDDDDDDDDDDDB##..#asos#DDDDDDDD",
"DDDDDDDDDDD#.AwwsswspopCBDDDDDDD",
"DDDDDDDDDBawsrpoooooooorxDDDDDDD",
"DDDDDDDDBawrpoooooooooqqsBDDDDDD",
"DDDDDDD#awrroooooqqqqqqqrwBDDDDD",
"DDDDDDBaarrfffgggqqqqqqqqr.DDDDD",
"DDDDDBazrgkC.##B#wuttttqik.DDDDD",
"DDDDDBajkA#BDDDDBzutttign.BDDDDD",
"DDDDDavC#DDDDDDD#yttikC#BDDDDDDD",
"DDDDDaCBDDDDDDDDatqkC#BDDDDDDDDD",
"DDDDDDBDDDDDDDDBal.BBDDDDDDDDDDD",
"DDDDDDDDDDDDDDBDBBBDDDDDDDDDDDDD",
"DDDDDDDDDDDBBaz.DDDDDDDDDBBDDDDD",
"DDDDDDDDDDBAaaz#DDDDDDDDBa.DDDDD",
"DDDDDDDBBaaazumBDDDDDDD#av.DDDDD",
"DDDDDB#aaaautinBDDDDDB#avlBDDDDD",
"DDDDDaaaztqqqrC.BB.Baaavg.BDDDDD",
"DDDDDazuqqqqqqrwaaaazvsglBDDDDDD",
"DDDDD#vqqqqqqqqqrrrrrgel#DDDDDDD",
"DDDDDDArqooooooooooodcl#BDDDDDDD",
"DDDDDDDwrooooooooddbgCBDDDDDDDDD",
"DDDDDDD#spodddddbchC.BDDDDDDDDDD",
"DDDDDDDD.rodl..x..BBDDDDDDDDDDDD",
"DDDDDDDDDwobxDDDDDDDDDDDDDDDDDDD",
"DDDDDDDDD#rh.DDDDDDDDDDDDDDDDDDD",
"DDDDDDDDDDxlBDDDDDDDDDDDDDDDDDDD",
"DDDDDDDDDDD#BDDDDDDDDDDDDDDDDDDD",
"DDDDDDDDDDDDDDDDDDDDDDDDDDDDDDDD"
};
