/* XPM */
const char* rgdv_xpm[] = {
"32 32 5 1",
".      c None",
"+	c #008080",
"@	c #F80000",
"#	c #008000",
"$	c #800080",
"................................",
"................................",
"..+++++.........................",
"..++..++........................",
"..++..++........................",
"..++..++........................",
"..+++++.........................",
"..++............................",
"..++.....@@@@@..................",
"..++.....@@.....................",
".........@@.....................",
".........@@.....................",
".........@@.....................",
".........@@.....#####...........",
".........@@.....##.##...........",
".........@@.....##.##...........",
"................##.##...........",
"................##.##...........",
"................##.##...........",
"................##.##...........",
"...............#######..........",
"...............#.....#..$$$$$...",
"...............#.....#..$$..$$..",
"........................$$..$$..",
"........................$$$$$...",
"........................$$..$$..",
"........................$$..$$..",
"........................$$..$$..",
"........................$$$$$...",
"................................",
"................................",
"................................"};
