/* XPM */
const char * rmo_xpm[] = {
"32 32 7 1",
".      c None",
"+	c #808080",
"@	c #F8F8F8",
"#	c #000000",
"$	c #008000",
"%	c #008080",
"&	c #00F8F8",
"................................",
"................................",
".......++++++++++++++++++.......",
"......+................@+#......",
".....+@@@@@@@@@@@@@@@@@++#......",
"....+@.................++#......",
"....+@.++++++++++++++@.++#......",
"....+@.$$$$$$$$$$$$$%@.++#......",
"....+@.$&&&&&&&&&&&&%@.++#......",
"....+@.$&&&&&&&&&&&&%@.++#......",
"....+@.$&&&&&&&&&&&&%@.++#......",
"....+@.$&&&&&&&&&&&&%@.++#......",
"....+@.$&&&&&&&&&&&&%@.++#......",
"....+@.$&&&&&&&&&&&&%@.++#......",
"....+@.$&&&&&&&&&&&&%@.++#......",
"....+@.$&&&&&&&&&&&&%@.++#......",
"....+@.%%%%%%%%%%%%%%@.++#......",
"....+@.@@@@@@@@@@@@@@@.++#......",
"....+@.................++#++....",
"....++++++++++++++++++++#++.#...",
"....####################++.+#...",
"..+++++++++++++++++++++++.++#...",
".+@@@@@@@@@@@@@@@@@@@@@@++++#...",
".+@....................@++++#...",
".+@..........+++++++++.@++++#...",
".+@..$$......#########.@++++....",
".+@....................@+++.....",
".+@@@@@@@@@@@@@@@@@@@@@@++......",
"..+++++++++++++++++++++++.......",
"................................",
"................................",
"................................"};
