/* XPM */
const char *rozi_xpm[] = {
/* width height num_colors chars_per_pixel */
"    32    32        8            1",
/* colors */
". c #c0c0c0",
"# c #c0dcc0",
"a c #204080",
"b c #606080",
"c c #608080",
"d c #808080",
"e c #fffbf0",
"f c None",
/* pixels */
"ffffffffffffffffffffffffffffffff",
"ddddddddddddddccccccccbbbbbbbbff",
"ddddddddddddddccccccccbbbbbbbbff",
"ddffffffffffffffbbeeeeeeeeeebb..",
"ddffffffffffffffbbeeeeeeeeeebb..",
"ddffaaaaaaaaffffbbeeeeeeeeeebb..",
"ddffaaaaaaaaffffbbeeeeeeeeeebb..",
"ddffffffffffffffbbeeeeeeeeeebb..",
"ddffffffffffffffbbeeeeeeeeeebb..",
"ddeeeeaaaaaaaaeebbeeeeeeeeeebb..",
"ddeeeeaaaaaaaaeebbeeeeeeeeeebb..",
"ddeeeeeeeeeeeeeebbeeeeeeeeeebb..",
"ddeeeeeeeeeeeeeebbeeeeeeeeeebb..",
"ddeeeeaaaaaaaaeebbeeeeeeeeeebb..",
"ddeeeeaaaaaaaaeebbeeeeeeeeeebb..",
"ddeeeeeeeeeeeeeebbeeeeeeeeeebb..",
"ddeeeeeeeeeeeeeebbeeeeeeeeeebb..",
"ddeeaaaaaaaaeeeebbeeeeeeeeeebb..",
"ddeeaaaaaaaaeeeebbeeeeeeeeeebb..",
"dd##############bbeeeeeeeeeebb..",
"dd##############bbeeeeeeeeeebb..",
"cc##aaaaaaaa####bbeeeeeeeeeebb..",
"cc##aaaaaaaa####bbeeeeeeeeeebb..",
"cc##############bbeeeeeeeeeebb..",
"cc##############bbeeeeeeeeeebb..",
"cc..............bbeeeeeeeeeebb..",
"cc..............bbeeeeeeeeeebb..",
"ccccccbbbbbbbbbbbbbbbbbbbbbbbb..",
"ccccccbbbbbbbbbbbbbbbbbbbbbbbb..",
"ff..............................",
"ff..............................",
"ffffffffffffffffffffffffffffffff"
};
