/* XPM */
const char * sbr_svo_xpm[] = {
"32 32 3 1",
" 	c None",
".	c #FF0000",
"+	c #800000",
"                                ",
"                                ",
"                                ",
"                                ",
"      .....      ..             ",
"     ..   ..   ...              ",
"     ..       ..                ",
"     ..      .....  .....       ",
"     ..      ..  .. ..  ..      ",
"     ++      ++  ++ ++  ++      ",
"     ++      ++  ++ ++  ++      ",
"     ++   ++ ++  ++ ++  +       ",
"      +++++   ++++  +++++       ",
"                    ++          ",
"      .....         ++          ",
"     ..   ..                    ",
"     ..      .....   ....       ",
"     ..      ..  .. ..  ..      ",
"     ..      ..  .. ..  ..      ",
"     ++      +++++  ++  ++      ",
"     ++      +++++  ++  ++      ",
"     ++      ++  ++ ++  ++      ",
"     ++   ++ ++  ++ ++  ++      ",
"      +++++  +++++   ++++       ",
"                                ",
"                                ",
"                                ",
"                                ",
"                                ",
"                                ",
"                                ",
"                                "};
