/* XPM */
const char *sbr_comm_xpm[] = {
/* width height num_colors chars_per_pixel */
"    32    32        3            1",
/* colors */
". c #800000",
"# c None",
"a c #ff0000",
/* pixels */
"################################",
"################################",
"################################",
"################################",
"######aaaaa######aa#############",
"#####aa###aa###aaa##############",
"#####aa#######aa################",
"#####aa######aaaaa##aaaaa#######",
"#####aa######aa##aa#aa##aa######",
"#####..######..##..#..##..######",
"#####..######..##..#..##..######",
"#####..###..#..##..#..##..######",
"######.....###....##.....#######",
"####################..##########",
"####################..##########",
"################################",
"#####aaaaa######aa##############",
"####aa###aa###aaa###############",
"####aa###aa##aa#################",
"####aa###aa#aaaaa##aa###aa######",
"####aa###aa#aa##aa#aa###aa######",
"####..###..#..##..#..#.#..######",
"####..###..#..##..#..#.#..######",
"####..###..#..##..#..#.#..######",
"#####.....###....##.........####",
"##########################..####",
"################################",
"################################",
"################################",
"################################",
"################################",
"################################"
};
