/* XPM */
const char * sbr_bep_xpm[] = {
"32 32 3 1",
". c #FF0000",
"# c None",
"+ c #800000",
"################################",
"################################",
"################################",
"################################",
"######.....######..#############",
"#####..###..###...##############",
"#####..#######..################",
"#####..######.....##.....#######",
"#####..######..##..#..##..######",
"#####++######++##++#++##++######",
"#####++######++##++#++##++######",
"#####++###++#++##++#++##+#######",
"######+++++###++++##+++++#######",
"####################++##########",
"#####.......########++##########",
"#####..#########################",
"#####..#######....##......######",
"#####..######..##..#..##..######",
"#####......######..#..##..######",
"#####++###++###++++#++##++######",
"#####++###++###++++#++##++######",
"#####++###++#####++#++##++######",
"#####++###++#++##++#++##++######",
"#####++++++###++++##++##++######",
"################################",
"################################",
"################################",
"################################",
"################################",
"################################",
"################################",
"################################"};
