/* XPM */
const char *scan_xpm[] = {
/* width height num_colors chars_per_pixel */
"    32    32       40            1",
/* colors */
". c #c0c0c0",
"# c #c0dcc0",
"a c #a6caf0",
"b c #404000",
"c c #004040",
"d c #404040",
"e c #604040",
"f c #406040",
"g c #004080",
"h c #404080",
"i c #604080",
"j c #006080",
"k c #406080",
"l c #606080",
"m c #a06080",
"n c #40a080",
"o c #60a080",
"p c #a0a080",
"q c #c0a080",
"r c #60c080",
"s c #a0c080",
"t c #c0c080",
"u c #0040c0",
"v c #4040c0",
"w c #0060c0",
"x c #4060c0",
"y c #6060c0",
"z c #a060c0",
"A c #00a0c0",
"B c #40a0c0",
"C c #60a0c0",
"D c #a0a0c0",
"E c #c0a0c0",
"F c #e0a0c0",
"G c #40c0c0",
"H c #60c0c0",
"I c #a0c0c0",
"J c #fffbf0",
"K c #a0a0a4",
"L c None",
/* pixels */
"LLLLLLLLLLLLLLLLLLLLLLLLLLLLLLLL",
"LLLLLLLLLLLLLL.KDpLLLLLLLLLLLLLL",
"LLLLLLF..IqlmomIEIld.LLLLLLLLLLL",
"L.KKKKsKIK..IKKpomodsJLDxD.yC.LL",
"Eo.IqsqomlikmoKKEDmklChwxwxLajqL",
".p#KlikhoKI.LFLLL.olkkwjHDaLaIjJ",
".r.ol.JLLLLLLLLLL.mlhxDaaaIaaahs",
".p#loJLLLLLLLJLJLFoha.a.aIHCHBht",
"Fl.omLLLLLLLJLLLEChCaaDHyBwwhgmL",
"Lm.plJLLLLLJLJayBDaaHDBnAwjgkm#L",
"FoEolLLLLLJL.ByaaaDBxwwwgglKFLLL",
"Lp.KoFLLLJL.xDLIHnAujgghoKLJLLLL",
"Jo.ImLLLJLDxaaoBuwhkeKq.JLLLLLLL",
"Lm.KlFLJL.xIGnwgxDDKlFLLLLLLLLLL",
"Lo.Dm.LLLCiwvjyaaIzoeLLLLLLLLLLL",
"Lp.Ko.LJL.a.aaaIa.ImkJLLLLLLLLLL",
"Lo.Dm.LLaa.aaaIaaaqoe#LLLLLLLLLL",
"Lm.KoKL.aIaIaIaIaIImkFLLLLLLLLLL",
"LoE.mHJaaaaaaaaaaaEoeLLLLLLLLLLL",
"Lm..oKaIaIaIaIaIaI.mkJLLLLLLLLLL",
"LoKDmKaaaaaaaa.aaaEDe.LLLLLLLLLL",
"LKIKKKaIaIaIaIaIaILDhKLLLLLLLLLL",
"LKmKKoaaaaaaaaaa.LqDesLLLLLLLLLL",
"LqoKDKaIaIa#L..qIKIEfsLLLLLLLLLL",
"L.iKmD.a.IqDzDDCmleci.LLLLLLLLLL",
"L.lKDKIKDmCDamkdhelK.JLLLLLLLLLL",
"LLiKKCzCmlidddmoF#JLLLLLLLLLLLLL",
"LLklIKlekbklIsLJLLLLLLLLLLLLLLLL",
"LLLledelKIFLLLLLLLLLLLLLLLLLLLLL",
"LLLLIK.JLJLLLLLLLLLLLLLLLLLLLLLL",
"LLLLLLLLLLLLLLLLLLLLLLLLLLLLLLLL",
"LLLLLLLLLLLLLLLLLLLLLLLLLLLLLLLL"
};
