/* XPM */
const char *sektors_xpm[] = {
/* width height num_colors chars_per_pixel */
"    32    32       27            1",
/* colors */
". c #c0c0c0",
"# c #c0dcc0",
"a c #a6caf0",
"b c #202040",
"c c #404040",
"d c #002080",
"e c #004080",
"f c #204080",
"g c #404080",
"h c #206080",
"i c #406080",
"j c #606080",
"k c #608080",
"l c #808080",
"m c #2040c0",
"n c #2060c0",
"o c #4060c0",
"p c #6060c0",
"q c #4080c0",
"r c #6080c0",
"s c #60a0c0",
"t c #80a0c0",
"u c #a0a0c0",
"v c #a0c0c0",
"w c #fffbf0",
"x c #a0a0a4",
"y c None",
/* pixels */
"yyyyyyyyyyyyyyyyyyyyyyyyyyyyyyyy",
"yyyyyyyyyyyy#avttttva#wyyyyyyyyy",
"yyyyyyyyw.vvvvvvuttjruatayyyyyyy",
"yyyyyyy.vvvvvvvvvutivtrttt#yyyyy",
"yyyyywavvvvvvvvvvvirawtrrtswyyyy",
"yyyywavvvvuuvvvvvriatoatttruyyyy",
"yyywaaavvvuuuuuvtiuuioovrrpo#yyy",
"yyyaaaaavvuuuuuvrq.iioorvoootyyy",
"yywaaaaavvvuuuvtiatfgoootroooayy",
"yyaaaaaaaavvuuuirvgihooorrmoouyy",
"ywaaaaaaaaavvvriarfioqorrromoryy",
"y#aaaaaaaaaavtiuvfffooorrrrmmnwy",
"yaaaaaaaaaaavri.omffmoooooomfe#y",
"yaaaaaaaaaaativtorrrrrrtttrfdd#y",
"yaaaaaaaaaatrgiiiiiiiiiiiiibg.wy",
"yaaaaaaaaaauggggffffffffffffiyyy",
"yaaaaaaaaaaaaaaaaaawwwwwarfikyyy",
"yaaaaaaaaaaavvuuuuvvvvvavrhityyy",
"yvavaaaaaavvvuuuuuuuuuutaoii.yyy",
"y.avvvvvvvvvvuuuuutuuttttiikwyyy",
"ywauuuuvvvvvvuuuutttttttkiovyyyy",
"yyuttttuuuuvvuuuuutttttuiiq.yyyy",
"yy.tttttttuuuuuuuutttttkirlwyyyy",
"yywutttttttuuuuuuutttttirj#.#wwy",
"yyy#tttttttttuuuuutttukrix...#ww",
"yyyy.tttttttttuuuuttttrixxx...#y",
"yyyyyvtttttttttuuuttkjjlxxx..#wy",
"yyyyyy#ttttttttttutkjjllxx..wyyy",
"yyyyyyywxrttttttttjcllx..#wwyyyy",
"yyyyyyyyyw.xkklkjjlxx.#wwyyyyyyy",
"yyyyyyyyyyyyyyyyyyyyyyyyyyyyyyyy",
"yyyyyyyyyyyyyyyyyyyyyyyyyyyyyyyy"
};
