/* XPM */
const char *setprm_xpm[] = {
/* width height num_colors chars_per_pixel */
"    32    32       15            1",
/* colors */
". c #000000",
"# c #008000",
"a c #808000",
"b c #000080",
"c c #800080",
"d c #008080",
"e c #c0c0c0",
"f c #808080",
"g c #ff0000",
"h c #00ff00",
"i c #ffff00",
"j c #0000ff",
"k c #ff00ff",
"l c #00ffff",
"m c None",
/* pixels */
"mmmmmmmmmmmmmmmmmmmmmmmmmmmmmmmm",
"mmmmmmmmmmmmmmmmmmmmmmmmmmmmmmmm",
"ffffffffffffffffffffffff.mmmmmmm",
"feeeeeeeeeeeeeeeeeeeeeef.mmmmmmm",
"febbbbbbbbbbbbbbbbbbbbbf.mmmmmmm",
"febbbbbbbbbbbbbbbe.e.e.f.mmmmmmm",
"febbbbbbbbbbbbbbb......f.mmmmmmm",
"feffffffffffffffffffffff.mmmmmmm",
"femmmmmmmmmmmmmmmmmmmmmf.mmmmmmm",
"femmhjhmmmmdllmmmmccgmmf.mmmmmmm",
"femmjhbmmmmdl#mmmmckgmmf.mmmmmmm",
"femmjbbmmmm###mmmmggkmmf.mmmmmmm",
"femmmmmmmmmmmmmmmmmfffff.mmmmmmm",
"femmamammmmckkmmmmfmmme..mmmmmmm",
"femmiammmmmcebaammfffff..mffmmmm",
"femmaiammmmkkaim..fmeff...im.mmm",
"femmmmmmmmmmmamimafmeff.aimi.mmm",
"femmjlbmmmmld.amimfmeff.imia.mmm",
"femmdlbmmmmld.amm.fmeff..ima.mmm",
"femmdjjmmmaaaaim.mfmeff.m.im...m",
"femmmmmmmmaimimim.fmeff..imimim.",
"feeeeeeeee.aaaamim......imi.aaa.",
"ffffffffff.aaa.amimimimimia.aaa.",
"...........aa.imi..aima..mim.aa.",
"mmmmmmmmmmm..aai.aaami.aaama...m",
"mmmmmmmmmmmmmai.aaaaim.aaaaa..mm",
"mmmmmmmmmmmmmai.a..aaa...aaa.mmm",
"mmmmmmmmmmmmmai..mmaaa.mm.aa.mmm",
"mmmmmmmmmmmmmm..mmm.aa.mmm..mmmm",
"mmmmmmmmmmmmmmmmmmm....mmmmmmmmm",
"mmmmmmmmmmmmmmmmmmmmmmmmmmmmmmmm",
"mmmmmmmmmmmmmmmmmmmmmmmmmmmmmmmm"
};
