/* XPM */
const char * skrpilot_xpm[] = {
"32 32 10 1",
".      c None",
"+	c #000000",
"@	c #00F800",
"#	c #008000",
"$	c #808080",
"%	c #00F8F8",
"&	c #F80000",
"*	c #0000F8",
"=	c #F8F8F8",
"-	c #000080",
"..............+@@+++............",
"..............+@@@@@++..........",
".............+@@@@@@@@++........",
".............+@@@@@@@@@@+.......",
"............+@@@@@@@@@@@@+......",
"............+@@@@###@@@@@@+.....",
"...........+@@@@@###@@@@@@@+....",
"...........+@@@@@###@@@@@@@@+...",
"..........+@@@@@@@@@@@@@@@@@+...",
".........++@@@@@@@@@@@@@@@@@@+..",
".........+@@@@$$$$@@@@@@@@@@@+..",
"........+@@@$$%%%%$+@@@@@#@@@@+.",
"........+@@$%%%%%%%%+@@@@#@@@@+.",
".......+@@@$%%%%%%%%+$@@@@@@@@++",
".......+@@$%%%%%&&%%%+$@@@@@++..",
"......+@@@$%%%&%&&%%%+$@@@++....",
"......+@@@$%%%&&%%%%%+$@++......",
".....+@@@@$%%%&&&%%%%+++........",
".....+@@@@@$%%%%%%%%%+..........",
"....+@@@@@@$%%%%%%%%+$..........",
"....+@@@@@@@$$%%%%%+$+$.........",
"...+@@@#@@@@@@+++++.$*+$........",
"...+@@@@@@@@++..$$.=.**+$.......",
"..+@@@@@@@++......$*%%**+$......",
"..+@@@@@++.........$*%%**+$.....",
".+@@@@++............-*%%**+$....",
".+@@++...............-*%%**+$...",
".+++..................-*%%**+...",
".+.....................-*%%*+...",
"........................-*%*+...",
".........................+++....",
"................................"};
