/* XPM */
const char* time_xpm[] = {
"32 32 5 1",
".      c None",
"+	c #000000",
"@	c #F8F800",
"#	c #00F8F8",
"$	c #F8F8F8",
"................................",
".........++++++++++++++.........",
"........++............++........",
".......+++++.......++++++.......",
"......+@@@@@+.....+@@@@@++......",
".....+@@@@@@@++++++@@@@@@++.....",
"....+@@@@@@@@+.++.+@@@@@@@@+....",
"...+@@@@@@@@.++++++.@@@@@@@@+...",
"...+@@@@@@.++######++.@@@@@@+...",
"...+@@@@@++####++####++@@@@@+...",
"...+@@@@+###+##++##+###+@@@@+...",
"...+@@@+####+##+###+####+@@@+...",
"....++.+#######+########+.++....",
"......+$#+#####+######+##+......",
"......+##+#####+######+##+......",
".....+#########+##########+.....",
".....+#########+##########+.....",
".....+#++######++++++##++#+.....",
".....+#++######++++++##++#+.....",
".....+####################+.....",
".....+####################+.....",
"......+##+############+##+......",
"......+##+############+##+......",
".......+################+.......",
".......+####+######+####+.......",
"........+###+##++##+###+........",
".........++####++####++.........",
".........++++######++++.........",
"........+++..++++++..+++........",
"........++............++........",
"........++............++........",
"................................"};
