/* XPM */
const char * viewer_xpm[] = {
"32 32 8 1",
".	c None",
"+	c #800080",
"@	c #000000",
"#	c #808080",
"$	c #F8F800",
"%	c #808000",
"&	c #800000",
"*	c #F8F8F8",
"................................",
"............++@.................",
"...........+#++@@...............",
"..........+#+++++@@.............",
".........+#++++++++@@...........",
"........+#++++++$$+++@@.........",
".......+#++++++$$$%++++@@.......",
"......+#++++++$$$%++++++@.......",
".....+#+++++++$$%++++++@........",
"....+#+++++++$%%++++++@@........",
"...+#++++++++%+++++++@#@........",
"..+#++++++$$%+++++++@#.@........",
".+@@@+++++$$%##############.....",
".+@##@@+++++#@@&&&&&&&&&&@@#....",
".+@..##@@+++#@@&&&&&&&&&&@@#....",
".+@.***##@@+#@@..........@@#....",
".+@.*****##@#@@..........@@#....",
".+++##*****##@@..........@@#....",
"..@@++##****#@@..........@@#....",
"....@@++##**#@@..........@@#....",
"......@@++###@@@@@@@@@@@@@@#....",
"........@@++#@@@@@@@@@@@@@@#....",
"..........@@#@@@@@@@@@@@@@@#....",
"............#@@@#@#######@@#....",
"............#@@@#@@######@@#....",
"............#@@@#@@######@##....",
"............#@@@#@#######@@#....",
".............###.......####.....",
"................................",
"................................",
"................................",
"................................"};
