/* XPM */
const char* zal_xpm[] = {        
"32 32 6 1",
". c None",
"+ c #000000",
"@ c #808080",
"# c #00F800",
"$ c #0000F8",
"% c #F8F8F8",
"................................",
"................................",
"................................",
"................................",
"................................",
"+++++++++++++++++++++++++++++...",
"+@@@@@@@+@@@@@@@@@@@+@@@@@@@+...",
"+@#@#@#@+@#@#@#@#@#@+@#@#@#@+...",
"+@@@@@@@+@@@@@@@@@@@+@@@@@@@+...",
"+@#@#@#@+@#@#@#@#@#@+@#@#@#@+...",
"+@@@@@@@+@@@@@@@@@@@+@@@@@@@+...",
"+@@@@@@@+@@@@@@@@@@@+@@@@@@@+...",
"+++++++++++++++++++++++++++++...",
"+@@@@@@@++$$$$$$$$$++@@@@@@@+...",
"+@#@#@#@++$$$$$$$$$++@#@#@#@+...",
"+@@@@@@@++$$$$$$$$$++@@@@@@@+...",
"+@#@#@#@++$$$$$$$$$++@#@#@#@+...",
"+@@@@@@@++$$$$$$$$$++@@@@@@@+...",
"+@@@@@@@++$$$$$$$$$++@@@@@@@+...",
"+++++++++++++++++++++++++++++...",
"+@@@@@@@+@%%%%%%%%%@+@@@@@@@+...",
"+@#@#@#@+@%%%%%%%%%@+@#@#@#@+...",
"+@@@@@@@+@@@@@@@@@@@+@@@@@@@+...",
"+@#@#@#@+@@@@@@@@@@@+@#@#@#@+...",
"+@@@@@@@+@@@@@@@@@@@+@@@@@@@+...",
"+@@@@@@@+@@@@@@@@@@@+@@@@@@@+...",
"+++++++++++++++++++++++++++++...",
"................................",
"................................",
"................................",
"................................",
"................................"};
